<?xml version="1.0" encoding="UTF-8" standalone="no"?>
<svg viewBox="0 0 225 225" version="1.1" xmlns="http://www.w3.org/2000/svg" xmlns:svg="http://www.w3.org/2000/svg">
    <rect fill="#bfbffd" x="0" y="0" width="200" height="200"/>
    <rect fill="#4f4fab" x="25" y="25" width="200" height="200"/>
    <path fill="#efefff" d="M 109.82402,50 C 76.750362,50 50,76.13715 50,108.45269 c 0,32.31554 26.750362,58.45276 59.82402,58.45276 11.80815,0 22.73649,-3.38469 32.00147,-9.13325 L 185.04397,200 200,185.38681 157.33134,143.80373 c 7.67048,-9.8317 12.31677,-22.01382 12.31677,-35.35104 C 169.64811,76.13715 142.8977,50 109.82402,50 Z m 0,13.7536 c 25.33452,0 45.74783,19.945375 45.74783,44.69909 0,24.75378 -20.41331,44.69916 -45.74783,44.69916 -25.334475,0 -45.747778,-19.94538 -45.747778,-44.69916 0,-24.753715 20.413303,-44.69909 45.747778,-44.69909 z"/>
</svg>
