<svg xmlns="http://www.w3.org/2000/svg" viewBox="0 0 256 256">
  <path d="m 208.01016,103.98477 c 0,22.94664 -7.45037,44.14353 -20.00098,61.34101 l 63.30309,63.34072 c 6.25031,6.24909 6.25031,16.3976 0,22.64669 -6.2503,6.24908 -16.4008,6.24908 -22.6511,0 l -63.3031,-63.34073 C 148.15723,200.57062 126.9562,207.96954 104.00508,207.96954 46.552273,207.96954 0,161.42635 0,103.98477 0,46.543182 46.552273,0 104.00508,0 c 57.4528,0 104.00508,46.543182 104.00508,103.98477 z m -104.00508,71.98945 a 72.003516,71.989455 0 1 0 0,-143.978907 72.003516,71.989455 0 1 0 0,143.978907 z"/>
</svg>
